HIERARCHY
ROOT hip
{
  OFFSET 0 0 0
  CHANNELS 6 Xposition Yposition Zposition Zrotation Yrotation Xrotation
  JOINT abdomen
  {
    OFFSET 0 20.6881 -0.73152
    CHANNELS 3 Zrotation Xrotation Yrotation
    JOINT chest
    {
      OFFSET 0 11.7043 -0.48768
      CHANNELS 3 Zrotation Xrotation Yrotation
      JOINT neck
      {
        OFFSET 0 22.1894 -2.19456
        CHANNELS 3 Zrotation Xrotation Yrotation
        JOINT head
        {
          OFFSET -0.24384 7.07133 1.2192
          CHANNELS 3 Zrotation Xrotation Yrotation
          JOINT leftEye
          {
            OFFSET 4.14528 8.04674 8.04672
            CHANNELS 3 Zrotation Xrotation Yrotation
            End Site
            {
              OFFSET 1 0 0
            }
          }
          JOINT rightEye
          {
            OFFSET -3.6576 8.04674 8.04672
            CHANNELS 3 Zrotation Xrotation Yrotation
            End Site
            {
              OFFSET 1 0 0
            }
          }
        }
      }
      JOINT rCollar
      {
        OFFSET -2.68224 19.2634 -4.8768
        CHANNELS 3 Zrotation Xrotation Yrotation
        JOINT rShldr
        {
          OFFSET -8.77824 -1.95073 1.46304
          CHANNELS 3 Zrotation Xrotation Yrotation
          JOINT rForeArm
          {
            OFFSET -28.1742 -1.7115 0.48768
            CHANNELS 3 Zrotation Xrotation Yrotation
            JOINT rHand
            {
              OFFSET -22.5879 0.773209 7.07136
              CHANNELS 3 Zrotation Xrotation Yrotation
              JOINT rThumb1
              {
                OFFSET -1.2192 -0.487915 3.41376
                CHANNELS 3 Zrotation Xrotation Yrotation
                JOINT rThumb2
                {
                  OFFSET -3.37035 -0.52449 3.41376
                  CHANNELS 3 Zrotation Xrotation Yrotation
                  End Site
                  {
                    OFFSET -1.78271 -1.18214 1.43049
                  }
                }
              }
              JOINT rIndex1
              {
                OFFSET -7.75947 0.938293 5.60832
                CHANNELS 3 Zrotation Xrotation Yrotation
                JOINT rIndex2
                {
                  OFFSET -2.54057 -0.884171 1.56538
                  CHANNELS 3 Zrotation Xrotation Yrotation
                  End Site
                  {
                    OFFSET -1.62519 -0.234802 1.16502
                  }
                }
              }
              JOINT rMid1
              {
                OFFSET -8.24714 1.18213 3.41376
                CHANNELS 3 Zrotation Xrotation Yrotation
                JOINT rMid2
                {
                  OFFSET -3.10165 -0.590103 1.0647
                  CHANNELS 3 Zrotation Xrotation Yrotation
                  End Site
                  {
                    OFFSET -2.48547 -0.328903 0.83742
                  }
                }
              }
              JOINT rRing1
              {
                OFFSET -8.82822 0.546677 1.51678
                CHANNELS 3 Zrotation Xrotation Yrotation
                JOINT rRing2
                {
                  OFFSET -2.60934 -0.819778 -0.0198488
                  CHANNELS 3 Zrotation Xrotation Yrotation
                  End Site
                  {
                    OFFSET -2.33842 -0.294052 0.168128
                  }
                }
              }
              JOINT rPinky1
              {
                OFFSET -8.27202 -0.0477905 -0.4584
                CHANNELS 3 Zrotation Xrotation Yrotation
                JOINT rPinky2
                {
                  OFFSET -1.82734 -0.647385 -0.700984
                  CHANNELS 3 Zrotation Xrotation Yrotation
                  End Site
                  {
                    OFFSET -1.69225 -0.51767 -0.607171
                  }
                }
              }
            }
          }
        }
      }
      JOINT lCollar
      {
        OFFSET 2.68224 19.2634 -4.8768
        CHANNELS 3 Zrotation Xrotation Yrotation
        JOINT lShldr
        {
          OFFSET 8.77824 -1.95073 1.46304
          CHANNELS 3 Zrotation Xrotation Yrotation
          JOINT lForeArm
          {
            OFFSET 28.1742 -1.7115 0.48768
            CHANNELS 3 Zrotation Xrotation Yrotation
            JOINT lHand
            {
              OFFSET 22.5879 0.773209 7.07136
              CHANNELS 3 Zrotation Xrotation Yrotation
              JOINT lThumb1
              {
                OFFSET 1.2192 -0.487915 3.41376
                CHANNELS 3 Zrotation Xrotation Yrotation
                JOINT lThumb2
                {
                  OFFSET 3.37035 -0.52449 3.41376
                  CHANNELS 3 Zrotation Xrotation Yrotation
                  End Site
                  {
                    OFFSET 1.78271 -1.18214 1.43049
                  }
                }
              }
              JOINT lIndex1
              {
                OFFSET 7.75947 0.938293 5.60832
                CHANNELS 3 Zrotation Xrotation Yrotation
                JOINT lIndex2
                {
                  OFFSET 2.54057 -0.884171 1.56538
                  CHANNELS 3 Zrotation Xrotation Yrotation
                  End Site
                  {
                    OFFSET 1.62519 -0.234802 1.16502
                  }
                }
              }
              JOINT lMid1
              {
                OFFSET 8.24714 1.18213 3.41376
                CHANNELS 3 Zrotation Xrotation Yrotation
                JOINT lMid2
                {
                  OFFSET 3.10165 -0.590103 1.0647
                  CHANNELS 3 Zrotation Xrotation Yrotation
                  End Site
                  {
                    OFFSET 2.48547 -0.328903 0.83742
                  }
                }
              }
              JOINT lRing1
              {
                OFFSET 8.82822 0.546677 1.51678
                CHANNELS 3 Zrotation Xrotation Yrotation
                JOINT lRing2
                {
                  OFFSET 2.60934 -0.819778 -0.0198488
                  CHANNELS 3 Zrotation Xrotation Yrotation
                  End Site
                  {
                    OFFSET 2.33842 -0.294052 0.168128
                  }
                }
              }
              JOINT lPinky1
              {
                OFFSET 8.27202 -0.0477905 -0.4584
                CHANNELS 3 Zrotation Xrotation Yrotation
                JOINT lPinky2
                {
                  OFFSET 1.82734 -0.647385 -0.700984
                  CHANNELS 3 Zrotation Xrotation Yrotation
                  End Site
                  {
                    OFFSET 1.69225 -0.51767 -0.607171
                  }
                }
              }
            }
          }
        }
      }
    }
  }
  JOINT rButtock
  {
    OFFSET -8.77824 4.35084 1.2192
    CHANNELS 3 Zrotation Xrotation Yrotation
    JOINT rThigh
    {
      OFFSET 0 -1.70687 -2.19456
      CHANNELS 3 Zrotation Xrotation Yrotation
      JOINT rShin
      {
        OFFSET 0 -36.8199 0.73152
        CHANNELS 3 Zrotation Xrotation Yrotation
        JOINT rFoot
        {
          OFFSET 0.73152 -45.1104 -5.12064
          CHANNELS 3 Zrotation Xrotation Yrotation
          End Site
          {
            OFFSET -1.1221 -3.69964 12.103
          }
        }
      }
    }
  }
  JOINT lButtock
  {
    OFFSET 8.77824 4.35084 1.2192
    CHANNELS 3 Zrotation Xrotation Yrotation
    JOINT lThigh
    {
      OFFSET 0 -1.70687 -2.19456
      CHANNELS 3 Zrotation Xrotation Yrotation
      JOINT lShin
      {
        OFFSET 0 -36.8199 0.73152
        CHANNELS 3 Zrotation Xrotation Yrotation
        JOINT lFoot
        {
          OFFSET -0.73152 -45.1104 -5.12064
          CHANNELS 3 Zrotation Xrotation Yrotation
          End Site
          {
            OFFSET 1.1221 -3.69964 12.103
          }
        }
      }
    }
  }
}
MOTION
Frames:	8
Frame Time:	0.00833333
66.9555 85.5886 7.64685 0.0 0.0 0.0 2.72265 0.000518305 0.0736217 0.750849 0.0131643 0.129931 9.91189e-14 -1.59028e-15 -4.96963e-17 2.98286e-13 3.18055e-15 -5.28022e-17 -0.0 0.0 0.0 -0.0 0.0 0.0 4.97952e-14 -1.22299e-16 1.98785e-16 1.04474e-12 -2.67738e-15 3.57812e-15 1.79692e-11 -5.43756e-12 -1.78111e-13 2.05183e-10 4.91316e-12 2.25819e-13 4.84073e-10 -1.13654e-12 8.26944e-14 8.35957e-10 -1.95286e-12 1.20861e-13 4.84078e-10 -1.13427e-12 7.31528e-14 7.73091 5.47488 0.417314 4.84072e-10 -1.13655e-12 8.26944e-14 2.90554 0.965183 0.102902 4.84082e-10 -1.13605e-12 7.79236e-14 10.2786 0.731801 0.0259123 4.84067e-10 -1.13586e-12 7.95139e-14 2.22167 -0.733487 -0.20892 4.97992e-14 -1.25017e-16 -9.93923e-17 1.04072e-12 -3.16192e-15 1.78906e-15 1.79073e-11 5.28867e-12 -1.84472e-13 2.05287e-10 -5.84554e-12 2.48083e-13 4.84157e-10 -1.19963e-12 7.31528e-14 8.36127e-10 -2.07054e-12 1.33583e-13 4.84151e-10 -1.19668e-12 9.22361e-14 -7.73091 5.47488 -0.417314 4.84156e-10 -1.19917e-12 7.95139e-14 -2.90554 0.965183 -0.102902 4.84146e-10 -1.19887e-12 8.42847e-14 -10.2786 0.731801 -0.0259123 4.84162e-10 -1.19907e-12 7.95139e-14 -2.22167 -0.733487 0.20892 -2.03217e-16 0.0 -3.88251e-19 2.53221 -8.65208 -0.274416 0.00740006 10.0935 0.189563 -0.516077 -1.45229 0.0285323 2.03217e-16 0.0 3.88251e-19 1.60713 -1.93183 -0.00952034 0.00860498 -2.07865 0.0706837 0.459646 3.99948 -0.132591
60.5621 82.9066 8.62167 -7.8329 -36.8433 -13.3326 4.92638 8.77194 0.113056 -0.215315 1.35275 0.263839 -0.242559 2.71718 -0.238553 -0.0656853 -8.70561 -0.477978 -0.0 0.0 0.0 -0.0 0.0 0.0 -5.40331e-14 4.43894e-14 1.54518e-13 23.7164 4.91447 3.43539 -4.55126 -2.13843 7.03055 4.3497e-05 -0.175943 -0.0247269 -6.39037e-11 1.10421e-09 2.90415e-11 -1.12972e-10 1.9108e-09 5.19214e-11 -6.38987e-11 1.10421e-09 2.90358e-11 7.73091 5.47488 0.417314 -6.39039e-11 1.10421e-09 2.90405e-11 2.90554 0.965183 0.102902 -6.38954e-11 1.10421e-09 2.90378e-11 10.2786 0.731801 0.0259123 -6.391e-11 1.10421e-09 2.90398e-11 2.22167 -0.733487 -0.20892 -5.40434e-14 4.4387e-14 1.54218e-13 -21.4072 10.8736 -6.04389 3.55275 -1.5011 -5.66584 -0.0014748 -0.855956 0.120249 -1.58621e-10 2.97535e-12 2.28195e-10 -2.74871e-10 4.43484e-12 3.92273e-10 -1.58626e-10 2.97754e-12 2.28211e-10 -7.73091 5.47488 -0.417314 -1.58621e-10 2.97586e-12 2.28201e-10 -2.90554 0.965183 -0.102902 -1.58629e-10 2.97625e-12 2.28203e-10 -10.2786 0.731801 -0.0259123 -1.58617e-10 2.97628e-12 2.28199e-10 -2.22167 -0.733487 0.20892 -2.03217e-16 0.0 -3.88251e-19 4.48674 -30.0256 -1.99698 -0.199276 40.4539 0.683914 -1.01274 -2.29431 -0.992291 2.03217e-16 0.0 3.88251e-19 1.64113 -25.6943 0.65089 0.0399557 33.3927 -0.462338 0.374009 2.90066 -0.217832
60.6095 83.0133 8.66461 -7.3835 -36.9082 -13.7809 7.29783 18.0337 0.170377 -1.2654 2.75271 0.413992 -0.468471 5.59864 -0.500814 -0.305104 -17.8952 -1.03976 -0.0 0.0 0.0 -0.0 0.0 0.0 -1.66044e-13 9.81467e-14 3.21609e-13 48.1536 10.0144 7.13037 -8.79998 -4.29428 14.4993 -9.09534e-05 -0.373207 -0.0524511 -6.62331e-10 2.30194e-09 4.47617e-11 -1.1493e-09 3.98334e-09 8.10166e-11 -6.62326e-10 2.30194e-09 4.47601e-11 7.73091 5.47488 0.417314 -6.6233e-10 2.30193e-09 4.47596e-11 2.90554 0.965183 0.102902 -6.62323e-10 2.30193e-09 4.47591e-11 10.2786 0.731801 0.0259123 -6.62337e-10 2.30194e-09 4.47613e-11 2.22167 -0.733487 -0.20892 -1.66068e-13 9.81444e-14 3.21307e-13 -41.3802 21.998 -13.1732 6.98881 -3.03993 -11.6701 0.00089329 -1.77044 0.248813 -8.75997e-10 -3.30762e-12 4.79833e-10 -1.51481e-09 -7.19879e-12 8.24809e-10 -8.76002e-10 -3.30634e-12 4.79846e-10 -7.73091 5.47488 -0.417314 -8.75997e-10 -3.30714e-12 4.7984e-10 -2.90554 0.965183 -0.102902 -8.76004e-10 -3.30664e-12 4.79838e-10 -10.2786 0.731801 -0.0259123 -8.75995e-10 -3.30639e-12 4.79836e-10 -2.22167 -0.733487 0.20892 -2.03217e-16 0.0 -3.88251e-19 4.35495 -52.5289 -5.36198 -2.31125 72.5177 2.90567 -1.58883 -3.17885 -2.11966 2.03217e-16 0.0 3.88251e-19 2.64861 -50.8337 1.94999 2.06036 70.8852 -2.65439 0.278154 1.78095 -0.313289
60.675 83.1161 8.71635 -6.8278 -36.9358 -14.2513 9.29261 26.3147 0.209686 -2.16647 4.03179 0.532752 -0.659211 8.15096 -0.722149 -0.674837 -26.1091 -1.57853 -0.0 0.0 0.0 -0.0 0.0 0.0 -2.61689e-13 1.33413e-13 4.63156e-13 69.3424 14.528 10.6113 -12.1116 -6.02974 21.1998 -0.00032511 -0.527828 -0.0741834 -1.15986e-09 3.31491e-09 8.69592e-11 -2.01083e-09 5.7363e-09 1.55522e-10 -1.15985e-09 3.31491e-09 8.6961e-11 7.73091 5.47488 0.417314 -1.15986e-09 3.31491e-09 8.69561e-11 2.90554 0.965183 0.102902 -1.15985e-09 3.31491e-09 8.69575e-11 10.2786 0.731801 0.0259123 -1.15986e-09 3.31491e-09 8.69603e-11 2.22167 -0.733487 -0.20892 -2.61729e-13 1.33411e-13 4.62854e-13 -56.5068 31.0473 -20.9104 9.77998 -4.32746 -17.0417 0.00636332 -2.56782 0.361069 -1.44418e-09 1.13253e-11 6.84437e-10 -2.49686e-09 1.74456e-11 1.17655e-09 -1.44418e-09 1.1326e-11 6.84449e-10 -7.73091 5.47488 -0.417314 -1.44418e-09 1.13259e-11 6.84445e-10 -2.90554 0.965183 -0.102902 -1.44418e-09 1.13265e-11 6.84441e-10 -10.2786 0.731801 -0.0259123 -1.44417e-09 1.1327e-11 6.84439e-10 -2.22167 -0.733487 0.20892 -2.03217e-16 0.0 -3.88251e-19 -3.36138 -72.2195 -15.3753 -173.36 78.7573 173.896 -2.09622 -3.97378 -3.03885 2.03217e-16 0.0 3.88251e-19 6.74002 -73.1323 6.14046 174.275 75.6044 -174.767 0.192924 0.703055 -0.38815
60.7418 83.2119 8.77448 -6.2608 -36.9454 -14.7274 10.3944 32.1437 0.180807 -2.68011 5.00878 0.571964 -0.814708 9.88107 -0.834378 -0.990077 -31.8922 -1.91145 -0.0 0.0 0.0 -0.0 0.0 0.0 -3.16421e-13 1.22451e-13 5.40843e-13 83.6576 17.771 13.2813 -14.1596 -7.08392 25.8756 -0.000406706 -0.575841 -0.0809319 -1.40513e-09 3.86602e-09 1.9535e-10 -2.43538e-09 6.69026e-09 3.43555e-10 -1.40513e-09 3.86601e-09 1.95353e-10 7.73091 5.47488 0.417314 -1.40513e-09 3.86601e-09 1.95346e-10 2.90554 0.965183 0.102902 -1.40512e-09 3.86601e-09 1.95349e-10 10.2786 0.731801 0.0259123 -1.40514e-09 3.86602e-09 1.95353e-10 2.22167 -0.733487 -0.20892 -3.16481e-13 1.22451e-13 5.40545e-13 -65.3526 36.4077 -27.4367 11.5746 -5.15476 -20.7896 0.0115919 -3.07248 0.432227 -1.63936e-09 7.8248e-11 7.71459e-10 -2.83421e-09 1.32785e-10 1.32632e-09 -1.63936e-09 7.82488e-11 7.71469e-10 -7.73091 5.47488 -0.417314 -1.63936e-09 7.82491e-11 7.71466e-10 -2.90554 0.965183 -0.102902 -1.63936e-09 7.82497e-11 7.71461e-10 -10.2786 0.731801 -0.0259123 -1.63936e-09 7.82504e-11 7.71459e-10 -2.22167 -0.733487 0.20892 -2.03217e-16 0.0 -3.88251e-19 -48.1755 -83.5338 -61.2587 -176.889 58.7515 177.278 -2.36222 -4.54944 -3.43309 2.03217e-16 0.0 3.88251e-19 57.3954 -87.5167 56.9636 177.125 52.3913 -177.38 0.141739 -0.270316 -0.411601
60.846 83.3132 8.85326 -5.6032 -36.916 -15.3378 10.2763 34.5161 -0.0170225 -2.71176 5.65262 0.485643 -0.892527 10.4431 -0.758605 -1.00555 -34.3388 -1.77514 -0.0 0.0 0.0 -0.0 0.0 0.0 -3.29487e-13 1.59464e-14 5.50445e-13 88.9629 19.4369 14.7234 -14.8679 -7.42403 27.6239 -0.000229902 -0.384448 -0.0540347 -1.27677e-09 3.98709e-09 5.40817e-10 -2.21316e-09 6.90111e-09 9.40354e-10 -1.27676e-09 3.98709e-09 5.40819e-10 7.73091 5.47488 0.417314 -1.27677e-09 3.98709e-09 5.40816e-10 2.90554 0.965183 0.102902 -1.27676e-09 3.98709e-09 5.40818e-10 10.2786 0.731801 0.0259123 -1.27678e-09 3.98709e-09 5.40824e-10 2.22167 -0.733487 -0.20892 -3.2958e-13 1.59508e-14 5.50157e-13 -68.5044 37.7791 -30.2899 12.2346 -5.45311 -22.2374 0.0133448 -3.18913 0.448702 -1.22813e-09 3.64314e-10 7.48831e-10 -2.12346e-09 6.27458e-10 1.28852e-09 -1.22814e-09 3.64317e-10 7.48839e-10 -7.73091 5.47488 -0.417314 -1.22813e-09 3.64317e-10 7.48835e-10 -2.90554 0.965183 -0.102902 -1.22814e-09 3.64317e-10 7.48832e-10 -10.2786 0.731801 -0.0259123 -1.22813e-09 3.64318e-10 7.48829e-10 -2.22167 -0.733487 0.20892 -2.03217e-16 0.0 -3.88251e-19 -98.3612 -83.3652 -111.246 -177.325 50.7474 177.618 -2.23626 -4.82595 -3.03342 2.03217e-16 0.0 3.88251e-19 154.708 -85.2172 154.768 177.524 43.4286 -177.64 0.136138 -1.13144 -0.386826
60.9978 83.4635 8.93629 -4.8932 -36.8004 -15.9693 9.28193 34.42 -0.331389 -2.39329 6.05419 0.309978 -0.919191 10.1714 -0.549353 -0.76492 -34.3989 -1.27504 -0.0 0.0 0.0 -0.0 0.0 0.0 -3.12049e-13 -1.57336e-13 5.10398e-13 87.9866 20.0206 15.2196 -14.7139 -7.32474 27.2689 -0.000361932 -0.0263446 -0.00371241 -8.82502e-10 3.79069e-09 1.04875e-09 -1.53062e-09 6.56328e-09 1.81723e-09 -8.82498e-10 3.79069e-09 1.04875e-09 7.73091 5.47488 0.417314 -8.82499e-10 3.79069e-09 1.04875e-09 2.90554 0.965183 0.102902 -8.82498e-10 3.79068e-09 1.04875e-09 10.2786 0.731801 0.0259123 -8.8251e-10 3.79069e-09 1.04876e-09 2.22167 -0.733487 -0.20892 -3.12183e-13 -1.57325e-13 5.10125e-13 -68.3788 36.7051 -29.9847 12.1415 -5.40641 -22.0357 0.0120666 -3.0276 0.42593 -3.87774e-10 7.99963e-10 6.45264e-10 -6.70999e-10 1.38107e-09 1.11222e-09 -3.87775e-10 7.99968e-10 6.45271e-10 -7.73091 5.47488 -0.417314 -3.87771e-10 7.99967e-10 6.45265e-10 -2.90554 0.965183 -0.102902 -3.87776e-10 7.99967e-10 6.45264e-10 -10.2786 0.731801 -0.0259123 -3.87769e-10 7.99968e-10 6.45259e-10 -2.22167 -0.733487 0.20892 -2.03217e-16 0.0 -3.88251e-19 -94.3347 -83.4005 -106.24 -177.295 51.3321 177.582 -1.8258 -4.88787 -2.06874 2.03217e-16 0.0 3.88251e-19 149.437 -86.4828 150.254 177.48 44.6563 -177.614 0.16509 -1.91077 -0.326437
61.0973 83.5002 9.03034 -4.1887 -36.6781 -16.5808 7.91238 33.3742 -0.591809 -1.8268 6.21533 0.120014 -1.00308 9.5941 -0.336547 -0.472438 -33.4053 -0.739467 -0.0 0.0 0.0 -0.0 0.0 0.0 -2.57426e-13 -3.0801e-13 4.16385e-13 84.4764 20.0853 15.1612 -14.2362 -7.06753 26.1267 -0.00071588 0.254198 0.0357138 -4.14638e-10 3.12076e-09 1.39062e-09 -7.19956e-10 5.40523e-09 2.40642e-09 -4.14634e-10 3.12076e-09 1.39061e-09 7.73091 5.47488 0.417314 -4.14635e-10 3.12076e-09 1.39062e-09 2.90554 0.965183 0.102902 -4.14635e-10 3.12075e-09 1.39062e-09 10.2786 0.731801 0.0259123 -4.14648e-10 3.12076e-09 1.39063e-09 2.22167 -0.733487 -0.20892 -2.57598e-13 -3.07994e-13 4.16126e-13 -67.0354 34.7621 -28.4009 11.7466 -5.22145 -21.1752 0.00947023 -2.71995 0.382567 4.89505e-10 1.06194e-09 4.21376e-10 8.4535e-10 1.83447e-09 7.28177e-10 4.89505e-10 1.06195e-09 4.21383e-10 -7.73091 5.47488 -0.417314 4.89508e-10 1.06195e-09 4.21373e-10 -2.90554 0.965183 -0.102902 4.89503e-10 1.06195e-09 4.21376e-10 -10.2786 0.731801 -0.0259123 4.89513e-10 1.06195e-09 4.21368e-10 -2.22167 -0.733487 0.20892 -2.03217e-16 0.0 -3.88251e-19 -68.917 -83.5504 -79.5764 -177.081 55.3733 177.4 -1.34114 -4.85395 -0.96835 2.03217e-16 0.0 3.88251e-19 52.3302 -88.3166 53.9788 177.255 49.9516 -177.469 0.22013 -2.60291 -0.213661
